<svg xmlns="http://www.w3.org/2000/svg" viewBox="0 0 1280 640" width="1280" height="640">
  <defs>
    <linearGradient id="bg" x1="0%" y1="0%" x2="100%" y2="100%">
      <stop offset="0%" style="stop-color:#000000;stop-opacity:1" />
      <stop offset="100%" style="stop-color:#0a0814;stop-opacity:1" />
    </linearGradient>
    <linearGradient id="keyGrad" x1="0%" y1="0%" x2="0%" y2="100%">
      <stop offset="0%" style="stop-color:#1E1E3F;stop-opacity:1" />
      <stop offset="100%" style="stop-color:#13132e;stop-opacity:1" />
    </linearGradient>
    <!-- CMD key: SoP purple -->
    <linearGradient id="cmdGrad" x1="0%" y1="0%" x2="0%" y2="100%">
      <stop offset="0%" style="stop-color:#4D21FC;stop-opacity:1" />
      <stop offset="100%" style="stop-color:#2D2B55;stop-opacity:1" />
    </linearGradient>
    <!-- ENTER key: LinkedIn blue -->
    <linearGradient id="enterGrad" x1="0%" y1="0%" x2="0%" y2="100%">
      <stop offset="0%" style="stop-color:#00A0DC;stop-opacity:1" />
      <stop offset="100%" style="stop-color:#0077B5;stop-opacity:1" />
    </linearGradient>
    <!-- Title gradient: purple → LinkedIn blue -->
    <linearGradient id="titleGrad" x1="0%" y1="0%" x2="100%" y2="0%">
      <stop offset="0%" style="stop-color:#B362FF;stop-opacity:1" />
      <stop offset="50%" style="stop-color:#A599E9;stop-opacity:1" />
      <stop offset="100%" style="stop-color:#00A0DC;stop-opacity:1" />
    </linearGradient>
    <filter id="cmdGlow">
      <feGaussianBlur stdDeviation="8" result="coloredBlur"/>
      <feMerge><feMergeNode in="coloredBlur"/><feMergeNode in="SourceGraphic"/></feMerge>
    </filter>
    <filter id="enterGlow">
      <feGaussianBlur stdDeviation="10" result="coloredBlur"/>
      <feMerge><feMergeNode in="coloredBlur"/><feMergeNode in="SourceGraphic"/></feMerge>
    </filter>
    <filter id="titleGlow">
      <feGaussianBlur stdDeviation="12" result="coloredBlur"/>
      <feMerge><feMergeNode in="coloredBlur"/><feMergeNode in="SourceGraphic"/></feMerge>
    </filter>
    <filter id="cmdShadow">
      <feDropShadow dx="0" dy="0" stdDeviation="12" flood-color="#4D21FC" flood-opacity="0.9"/>
    </filter>
    <filter id="enterShadow">
      <feDropShadow dx="0" dy="0" stdDeviation="14" flood-color="#0077B5" flood-opacity="0.9"/>
    </filter>
    <filter id="inShadow">
      <feDropShadow dx="0" dy="2" stdDeviation="6" flood-color="#0077B5" flood-opacity="0.6"/>
    </filter>
  </defs>

  <!-- Background -->
  <rect width="1280" height="640" fill="#000000"/>
  <rect width="1280" height="640" fill="url(#bg)" opacity="0.97"/>

  <!-- Subtle grid -->
  <g opacity="0.03" stroke="#A599E9" stroke-width="1">
    <line x1="0" y1="80" x2="1280" y2="80"/>
    <line x1="0" y1="160" x2="1280" y2="160"/>
    <line x1="0" y1="240" x2="1280" y2="240"/>
    <line x1="0" y1="320" x2="1280" y2="320"/>
    <line x1="0" y1="400" x2="1280" y2="400"/>
    <line x1="0" y1="480" x2="1280" y2="480"/>
    <line x1="0" y1="560" x2="1280" y2="560"/>
    <line x1="160" y1="0" x2="160" y2="640"/>
    <line x1="320" y1="0" x2="320" y2="640"/>
    <line x1="480" y1="0" x2="480" y2="640"/>
    <line x1="640" y1="0" x2="640" y2="640"/>
    <line x1="800" y1="0" x2="800" y2="640"/>
    <line x1="960" y1="0" x2="960" y2="640"/>
    <line x1="1120" y1="0" x2="1120" y2="640"/>
  </g>

  <!-- Ambient glows: purple left (CMD), blue right (Enter) -->
  <ellipse cx="266" cy="575" rx="110" ry="40" fill="#4D21FC" opacity="0.28"/>
  <ellipse cx="990" cy="432" rx="120" ry="42" fill="#0077B5" opacity="0.28"/>
  <!-- Subtle center bloom -->
  <ellipse cx="640" cy="420" rx="460" ry="110" fill="#1E1E3F" opacity="0.12"/>

  <!-- LinkedIn "in" badge — top right -->
  <rect x="1140" y="32" width="108" height="44" rx="8" fill="#0077B5" filter="url(#inShadow)"/>
  <text x="1194" y="64" font-family="'Georgia','Times New Roman',serif" font-size="30" fill="#ffffff" text-anchor="middle" font-weight="900" font-style="italic">in</text>

  <!-- === KEYBOARD === -->
  <rect x="200" y="310" width="880" height="250" rx="18" ry="18" fill="#080612" stroke="#1E1E3F" stroke-width="2"/>
  <rect x="208" y="318" width="864" height="234" rx="14" ry="14" fill="#050410"/>

  <!-- ── ROW 1 ── -->
  <rect x="228" y="334" width="52" height="44" rx="6" fill="url(#keyGrad)" stroke="#1E1E3F" stroke-width="1"/>
  <text x="254" y="362" font-family="'SF Mono','Fira Code',monospace" font-size="11" fill="#2e2c5a" text-anchor="middle">ESC</text>
  <rect x="290" y="334" width="44" height="44" rx="6" fill="url(#keyGrad)" stroke="#1E1E3F" stroke-width="1"/>
  <text x="312" y="362" font-family="'SF Mono','Fira Code',monospace" font-size="13" fill="#2e2c5a" text-anchor="middle">1</text>
  <rect x="344" y="334" width="44" height="44" rx="6" fill="url(#keyGrad)" stroke="#1E1E3F" stroke-width="1"/>
  <text x="366" y="362" font-family="'SF Mono','Fira Code',monospace" font-size="13" fill="#2e2c5a" text-anchor="middle">2</text>
  <rect x="398" y="334" width="44" height="44" rx="6" fill="url(#keyGrad)" stroke="#1E1E3F" stroke-width="1"/>
  <text x="420" y="362" font-family="'SF Mono','Fira Code',monospace" font-size="13" fill="#2e2c5a" text-anchor="middle">3</text>
  <rect x="452" y="334" width="44" height="44" rx="6" fill="url(#keyGrad)" stroke="#1E1E3F" stroke-width="1"/>
  <text x="474" y="362" font-family="'SF Mono','Fira Code',monospace" font-size="13" fill="#2e2c5a" text-anchor="middle">4</text>
  <rect x="506" y="334" width="44" height="44" rx="6" fill="url(#keyGrad)" stroke="#1E1E3F" stroke-width="1"/>
  <text x="528" y="362" font-family="'SF Mono','Fira Code',monospace" font-size="13" fill="#2e2c5a" text-anchor="middle">5</text>
  <rect x="560" y="334" width="44" height="44" rx="6" fill="url(#keyGrad)" stroke="#1E1E3F" stroke-width="1"/>
  <text x="582" y="362" font-family="'SF Mono','Fira Code',monospace" font-size="13" fill="#2e2c5a" text-anchor="middle">6</text>
  <rect x="614" y="334" width="44" height="44" rx="6" fill="url(#keyGrad)" stroke="#1E1E3F" stroke-width="1"/>
  <text x="636" y="362" font-family="'SF Mono','Fira Code',monospace" font-size="13" fill="#2e2c5a" text-anchor="middle">7</text>
  <rect x="668" y="334" width="44" height="44" rx="6" fill="url(#keyGrad)" stroke="#1E1E3F" stroke-width="1"/>
  <text x="690" y="362" font-family="'SF Mono','Fira Code',monospace" font-size="13" fill="#2e2c5a" text-anchor="middle">8</text>
  <rect x="722" y="334" width="44" height="44" rx="6" fill="url(#keyGrad)" stroke="#1E1E3F" stroke-width="1"/>
  <text x="744" y="362" font-family="'SF Mono','Fira Code',monospace" font-size="13" fill="#2e2c5a" text-anchor="middle">9</text>
  <rect x="776" y="334" width="44" height="44" rx="6" fill="url(#keyGrad)" stroke="#1E1E3F" stroke-width="1"/>
  <text x="798" y="362" font-family="'SF Mono','Fira Code',monospace" font-size="13" fill="#2e2c5a" text-anchor="middle">0</text>
  <rect x="830" y="334" width="44" height="44" rx="6" fill="url(#keyGrad)" stroke="#1E1E3F" stroke-width="1"/>
  <text x="852" y="362" font-family="'SF Mono','Fira Code',monospace" font-size="13" fill="#2e2c5a" text-anchor="middle">-</text>
  <rect x="884" y="334" width="44" height="44" rx="6" fill="url(#keyGrad)" stroke="#1E1E3F" stroke-width="1"/>
  <text x="906" y="362" font-family="'SF Mono','Fira Code',monospace" font-size="13" fill="#2e2c5a" text-anchor="middle">=</text>
  <rect x="938" y="334" width="90" height="44" rx="6" fill="url(#keyGrad)" stroke="#1E1E3F" stroke-width="1"/>
  <text x="983" y="362" font-family="'SF Mono','Fira Code',monospace" font-size="11" fill="#2e2c5a" text-anchor="middle">⌫</text>

  <!-- ── ROW 2 ── -->
  <rect x="228" y="388" width="66" height="44" rx="6" fill="url(#keyGrad)" stroke="#1E1E3F" stroke-width="1"/>
  <text x="261" y="416" font-family="'SF Mono','Fira Code',monospace" font-size="11" fill="#2e2c5a" text-anchor="middle">TAB</text>
  <rect x="304" y="388" width="44" height="44" rx="6" fill="url(#keyGrad)" stroke="#1E1E3F" stroke-width="1"/>
  <text x="326" y="416" font-family="'SF Mono','Fira Code',monospace" font-size="13" fill="#2e2c5a" text-anchor="middle">Q</text>
  <rect x="358" y="388" width="44" height="44" rx="6" fill="url(#keyGrad)" stroke="#1E1E3F" stroke-width="1"/>
  <text x="380" y="416" font-family="'SF Mono','Fira Code',monospace" font-size="13" fill="#2e2c5a" text-anchor="middle">W</text>
  <rect x="412" y="388" width="44" height="44" rx="6" fill="url(#keyGrad)" stroke="#1E1E3F" stroke-width="1"/>
  <text x="434" y="416" font-family="'SF Mono','Fira Code',monospace" font-size="13" fill="#2e2c5a" text-anchor="middle">E</text>
  <rect x="466" y="388" width="44" height="44" rx="6" fill="url(#keyGrad)" stroke="#1E1E3F" stroke-width="1"/>
  <text x="488" y="416" font-family="'SF Mono','Fira Code',monospace" font-size="13" fill="#2e2c5a" text-anchor="middle">R</text>
  <rect x="520" y="388" width="44" height="44" rx="6" fill="url(#keyGrad)" stroke="#1E1E3F" stroke-width="1"/>
  <text x="542" y="416" font-family="'SF Mono','Fira Code',monospace" font-size="13" fill="#2e2c5a" text-anchor="middle">T</text>
  <rect x="574" y="388" width="44" height="44" rx="6" fill="url(#keyGrad)" stroke="#1E1E3F" stroke-width="1"/>
  <text x="596" y="416" font-family="'SF Mono','Fira Code',monospace" font-size="13" fill="#2e2c5a" text-anchor="middle">Y</text>
  <rect x="628" y="388" width="44" height="44" rx="6" fill="url(#keyGrad)" stroke="#1E1E3F" stroke-width="1"/>
  <text x="650" y="416" font-family="'SF Mono','Fira Code',monospace" font-size="13" fill="#2e2c5a" text-anchor="middle">U</text>
  <rect x="682" y="388" width="44" height="44" rx="6" fill="url(#keyGrad)" stroke="#1E1E3F" stroke-width="1"/>
  <text x="704" y="416" font-family="'SF Mono','Fira Code',monospace" font-size="13" fill="#2e2c5a" text-anchor="middle">I</text>
  <rect x="736" y="388" width="44" height="44" rx="6" fill="url(#keyGrad)" stroke="#1E1E3F" stroke-width="1"/>
  <text x="758" y="416" font-family="'SF Mono','Fira Code',monospace" font-size="13" fill="#2e2c5a" text-anchor="middle">O</text>
  <rect x="790" y="388" width="44" height="44" rx="6" fill="url(#keyGrad)" stroke="#1E1E3F" stroke-width="1"/>
  <text x="812" y="416" font-family="'SF Mono','Fira Code',monospace" font-size="13" fill="#2e2c5a" text-anchor="middle">P</text>
  <rect x="844" y="388" width="44" height="44" rx="6" fill="url(#keyGrad)" stroke="#1E1E3F" stroke-width="1"/>
  <text x="866" y="416" font-family="'SF Mono','Fira Code',monospace" font-size="13" fill="#2e2c5a" text-anchor="middle">[</text>
  <rect x="898" y="388" width="44" height="44" rx="6" fill="url(#keyGrad)" stroke="#1E1E3F" stroke-width="1"/>
  <text x="920" y="416" font-family="'SF Mono','Fira Code',monospace" font-size="13" fill="#2e2c5a" text-anchor="middle">]</text>

  <!-- ENTER — LinkedIn blue glow -->
  <rect x="952" y="388" width="76" height="44" rx="6" fill="url(#enterGrad)" stroke="#00A0DC" stroke-width="2" filter="url(#enterShadow)"/>
  <text x="990" y="416" font-family="'SF Mono','Fira Code',monospace" font-size="15" fill="#ffffff" text-anchor="middle" font-weight="bold">↵</text>

  <!-- ── ROW 3 ── -->
  <rect x="228" y="442" width="80" height="44" rx="6" fill="url(#keyGrad)" stroke="#1E1E3F" stroke-width="1"/>
  <text x="268" y="470" font-family="'SF Mono','Fira Code',monospace" font-size="11" fill="#2e2c5a" text-anchor="middle">CAPS</text>
  <rect x="318" y="442" width="44" height="44" rx="6" fill="url(#keyGrad)" stroke="#1E1E3F" stroke-width="1"/>
  <text x="340" y="470" font-family="'SF Mono','Fira Code',monospace" font-size="13" fill="#2e2c5a" text-anchor="middle">A</text>
  <rect x="372" y="442" width="44" height="44" rx="6" fill="url(#keyGrad)" stroke="#1E1E3F" stroke-width="1"/>
  <text x="394" y="470" font-family="'SF Mono','Fira Code',monospace" font-size="13" fill="#2e2c5a" text-anchor="middle">S</text>
  <rect x="426" y="442" width="44" height="44" rx="6" fill="url(#keyGrad)" stroke="#1E1E3F" stroke-width="1"/>
  <text x="448" y="470" font-family="'SF Mono','Fira Code',monospace" font-size="13" fill="#2e2c5a" text-anchor="middle">D</text>
  <rect x="480" y="442" width="44" height="44" rx="6" fill="url(#keyGrad)" stroke="#1E1E3F" stroke-width="1"/>
  <text x="502" y="470" font-family="'SF Mono','Fira Code',monospace" font-size="13" fill="#2e2c5a" text-anchor="middle">F</text>
  <rect x="534" y="442" width="44" height="44" rx="6" fill="url(#keyGrad)" stroke="#1E1E3F" stroke-width="1"/>
  <text x="556" y="470" font-family="'SF Mono','Fira Code',monospace" font-size="13" fill="#2e2c5a" text-anchor="middle">G</text>
  <rect x="588" y="442" width="44" height="44" rx="6" fill="url(#keyGrad)" stroke="#1E1E3F" stroke-width="1"/>
  <text x="610" y="470" font-family="'SF Mono','Fira Code',monospace" font-size="13" fill="#2e2c5a" text-anchor="middle">H</text>
  <rect x="642" y="442" width="44" height="44" rx="6" fill="url(#keyGrad)" stroke="#1E1E3F" stroke-width="1"/>
  <text x="664" y="470" font-family="'SF Mono','Fira Code',monospace" font-size="13" fill="#2e2c5a" text-anchor="middle">J</text>
  <rect x="696" y="442" width="44" height="44" rx="6" fill="url(#keyGrad)" stroke="#1E1E3F" stroke-width="1"/>
  <text x="718" y="470" font-family="'SF Mono','Fira Code',monospace" font-size="13" fill="#2e2c5a" text-anchor="middle">K</text>
  <rect x="750" y="442" width="44" height="44" rx="6" fill="url(#keyGrad)" stroke="#1E1E3F" stroke-width="1"/>
  <text x="772" y="470" font-family="'SF Mono','Fira Code',monospace" font-size="13" fill="#2e2c5a" text-anchor="middle">L</text>
  <rect x="804" y="442" width="44" height="44" rx="6" fill="url(#keyGrad)" stroke="#1E1E3F" stroke-width="1"/>
  <text x="826" y="470" font-family="'SF Mono','Fira Code',monospace" font-size="13" fill="#2e2c5a" text-anchor="middle">;</text>
  <rect x="858" y="442" width="44" height="44" rx="6" fill="url(#keyGrad)" stroke="#1E1E3F" stroke-width="1"/>
  <text x="880" y="470" font-family="'SF Mono','Fira Code',monospace" font-size="13" fill="#2e2c5a" text-anchor="middle">'</text>
  <rect x="912" y="442" width="116" height="44" rx="6" fill="url(#keyGrad)" stroke="#1E1E3F" stroke-width="1"/>
  <text x="970" y="470" font-family="'SF Mono','Fira Code',monospace" font-size="11" fill="#2e2c5a" text-anchor="middle">SHIFT</text>

  <!-- ── ROW 4 ── -->
  <rect x="228" y="496" width="100" height="44" rx="6" fill="url(#keyGrad)" stroke="#1E1E3F" stroke-width="1"/>
  <text x="278" y="524" font-family="'SF Mono','Fira Code',monospace" font-size="11" fill="#2e2c5a" text-anchor="middle">SHIFT</text>
  <rect x="338" y="496" width="44" height="44" rx="6" fill="url(#keyGrad)" stroke="#1E1E3F" stroke-width="1"/>
  <text x="360" y="524" font-family="'SF Mono','Fira Code',monospace" font-size="13" fill="#2e2c5a" text-anchor="middle">Z</text>
  <rect x="392" y="496" width="44" height="44" rx="6" fill="url(#keyGrad)" stroke="#1E1E3F" stroke-width="1"/>
  <text x="414" y="524" font-family="'SF Mono','Fira Code',monospace" font-size="13" fill="#2e2c5a" text-anchor="middle">X</text>
  <rect x="446" y="496" width="44" height="44" rx="6" fill="url(#keyGrad)" stroke="#1E1E3F" stroke-width="1"/>
  <text x="468" y="524" font-family="'SF Mono','Fira Code',monospace" font-size="13" fill="#2e2c5a" text-anchor="middle">C</text>
  <rect x="500" y="496" width="44" height="44" rx="6" fill="url(#keyGrad)" stroke="#1E1E3F" stroke-width="1"/>
  <text x="522" y="524" font-family="'SF Mono','Fira Code',monospace" font-size="13" fill="#2e2c5a" text-anchor="middle">V</text>
  <rect x="554" y="496" width="44" height="44" rx="6" fill="url(#keyGrad)" stroke="#1E1E3F" stroke-width="1"/>
  <text x="576" y="524" font-family="'SF Mono','Fira Code',monospace" font-size="13" fill="#2e2c5a" text-anchor="middle">B</text>
  <rect x="608" y="496" width="44" height="44" rx="6" fill="url(#keyGrad)" stroke="#1E1E3F" stroke-width="1"/>
  <text x="630" y="524" font-family="'SF Mono','Fira Code',monospace" font-size="13" fill="#2e2c5a" text-anchor="middle">N</text>
  <rect x="662" y="496" width="44" height="44" rx="6" fill="url(#keyGrad)" stroke="#1E1E3F" stroke-width="1"/>
  <text x="684" y="524" font-family="'SF Mono','Fira Code',monospace" font-size="13" fill="#2e2c5a" text-anchor="middle">M</text>
  <rect x="716" y="496" width="44" height="44" rx="6" fill="url(#keyGrad)" stroke="#1E1E3F" stroke-width="1"/>
  <text x="738" y="524" font-family="'SF Mono','Fira Code',monospace" font-size="13" fill="#2e2c5a" text-anchor="middle">,</text>
  <rect x="770" y="496" width="44" height="44" rx="6" fill="url(#keyGrad)" stroke="#1E1E3F" stroke-width="1"/>
  <text x="792" y="524" font-family="'SF Mono','Fira Code',monospace" font-size="13" fill="#2e2c5a" text-anchor="middle">.</text>
  <rect x="824" y="496" width="44" height="44" rx="6" fill="url(#keyGrad)" stroke="#1E1E3F" stroke-width="1"/>
  <text x="846" y="524" font-family="'SF Mono','Fira Code',monospace" font-size="13" fill="#2e2c5a" text-anchor="middle">/</text>
  <rect x="878" y="496" width="150" height="44" rx="6" fill="url(#keyGrad)" stroke="#1E1E3F" stroke-width="1"/>
  <text x="953" y="524" font-family="'SF Mono','Fira Code',monospace" font-size="11" fill="#2e2c5a" text-anchor="middle">SHIFT</text>

  <!-- ── BOTTOM ROW ── -->
  <!-- CMD left — SoP purple -->
  <rect x="228" y="550" width="76" height="36" rx="6" fill="url(#cmdGrad)" stroke="#4D21FC" stroke-width="2" filter="url(#cmdShadow)"/>
  <text x="266" y="574" font-family="'SF Mono','Fira Code',monospace" font-size="16" fill="#FAD000" text-anchor="middle" font-weight="bold">⌘</text>

  <rect x="314" y="550" width="54" height="36" rx="6" fill="url(#keyGrad)" stroke="#1E1E3F" stroke-width="1"/>
  <text x="341" y="573" font-family="'SF Mono','Fira Code',monospace" font-size="10" fill="#2e2c5a" text-anchor="middle">OPT</text>

  <!-- Spacebar -->
  <rect x="378" y="550" width="416" height="36" rx="6" fill="url(#keyGrad)" stroke="#1E1E3F" stroke-width="1"/>

  <rect x="804" y="550" width="54" height="36" rx="6" fill="url(#keyGrad)" stroke="#1E1E3F" stroke-width="1"/>
  <text x="831" y="573" font-family="'SF Mono','Fira Code',monospace" font-size="10" fill="#2e2c5a" text-anchor="middle">OPT</text>

  <rect x="868" y="550" width="54" height="36" rx="6" fill="url(#keyGrad)" stroke="#1E1E3F" stroke-width="1"/>
  <text x="895" y="573" font-family="'SF Mono','Fira Code',monospace" font-size="10" fill="#2e2c5a" text-anchor="middle">CTRL</text>

  <!-- CMD right — SoP purple -->
  <rect x="932" y="550" width="96" height="36" rx="6" fill="url(#cmdGrad)" stroke="#4D21FC" stroke-width="2" filter="url(#cmdShadow)"/>
  <text x="980" y="574" font-family="'SF Mono','Fira Code',monospace" font-size="16" fill="#FAD000" text-anchor="middle" font-weight="bold">⌘</text>

  <!-- === CONNECTOR: purple → blue arc from CMD to ENTER === -->
  <defs>
    <linearGradient id="arcGrad" x1="0%" y1="0%" x2="100%" y2="0%">
      <stop offset="0%" style="stop-color:#4D21FC;stop-opacity:0.7"/>
      <stop offset="100%" style="stop-color:#0077B5;stop-opacity:0.7"/>
    </linearGradient>
  </defs>
  <path d="M 266 550 Q 628 478 990 432" stroke="url(#arcGrad)" stroke-width="2" stroke-dasharray="7,5" fill="none"/>

  <!-- Plus badge at midpoint -->
  <circle cx="628" cy="490" r="16" fill="#0a0814" stroke="url(#arcGrad)" stroke-width="2"/>
  <text x="628" y="496" font-family="'SF Mono','Fira Code',monospace" font-size="16" fill="#A599E9" text-anchor="middle" font-weight="bold">+</text>

  <!-- === TITLE === -->
  <!-- Glow layer -->
  <text x="640" y="92" font-family="'SF Pro Display','Helvetica Neue',Arial,sans-serif" font-size="62" fill="#A599E9" text-anchor="middle" font-weight="800" letter-spacing="-2" opacity="0.15" filter="url(#titleGlow)">⌘ + Enter</text>
  <!-- Main title with gradient -->
  <text x="640" y="92" font-family="'SF Pro Display','Helvetica Neue',Arial,sans-serif" font-size="62" fill="url(#titleGrad)" text-anchor="middle" font-weight="800" letter-spacing="-2">⌘ + Enter</text>

  <!-- Subtitle -->
  <text x="640" y="142" font-family="'SF Pro Display','Helvetica Neue',Arial,sans-serif" font-size="17" fill="#0077B5" text-anchor="middle" font-weight="600" letter-spacing="5">LINKEDIN COMMENT SHORTCUT</text>

  <!-- Tagline -->
  <text x="640" y="190" font-family="'SF Pro Text','Helvetica Neue',Arial,sans-serif" font-size="14" fill="#2D2B55" text-anchor="middle" letter-spacing="0.5">Because life is too short to move your finger to the trackpad</text>

  <!-- Badge -->
  <rect x="548" y="216" width="184" height="26" rx="13" fill="#0d0b1a" stroke="#1E1E3F" stroke-width="1"/>
  <text x="640" y="234" font-family="'SF Mono','Fira Code',monospace" font-size="11" fill="#A599E9" text-anchor="middle" letter-spacing="1">Chrome Extension · MV3</text>

</svg>
